<mxfile host="app.diagrams.net" modified="2023-06-25T08:27:07.533Z" agent="Mozilla/5.0 (Macintosh; Intel Mac OS X 10_15_7) AppleWebKit/537.36 (KHTML, like Gecko) Chrome/114.0.0.0 Safari/537.36" etag="3esQamKxIQir4cuG97x2" version="21.3.8" type="github">
  <diagram name="Page-1" id="2YBvvXClWsGukQMizWep">
    <mxGraphModel dx="2284" dy="715" grid="1" gridSize="10" guides="1" tooltips="1" connect="1" arrows="1" fold="1" page="1" pageScale="1" pageWidth="850" pageHeight="1100" math="0" shadow="0">
      <root>
        <mxCell id="0" />
        <mxCell id="1" parent="0" />
        <mxCell id="VWIVNXtLc2JzitBILpdr-26" value="" style="rounded=0;whiteSpace=wrap;html=1;" parent="1" vertex="1">
          <mxGeometry x="-440" y="740" width="1240" height="400" as="geometry" />
        </mxCell>
        <mxCell id="VWIVNXtLc2JzitBILpdr-18" value="" style="rounded=0;whiteSpace=wrap;html=1;" parent="1" vertex="1">
          <mxGeometry x="-440" y="510" width="1240" height="230" as="geometry" />
        </mxCell>
        <mxCell id="aM9ryv3xv72pqoxQDRHE-1" value="StudentUser&lt;br&gt;Controller" style="shape=umlLifeline;perimeter=lifelinePerimeter;whiteSpace=wrap;html=1;container=0;dropTarget=0;collapsible=0;recursiveResize=0;outlineConnect=0;portConstraint=eastwest;newEdgeStyle={&quot;edgeStyle&quot;:&quot;elbowEdgeStyle&quot;,&quot;elbow&quot;:&quot;vertical&quot;,&quot;curved&quot;:0,&quot;rounded&quot;:0};size=40;" parent="1" vertex="1">
          <mxGeometry x="40" y="40" width="100" height="550" as="geometry" />
        </mxCell>
        <mxCell id="aM9ryv3xv72pqoxQDRHE-5" value="StudentUser&lt;br&gt;Service" style="shape=umlLifeline;perimeter=lifelinePerimeter;whiteSpace=wrap;html=1;container=0;dropTarget=0;collapsible=0;recursiveResize=0;outlineConnect=0;portConstraint=eastwest;newEdgeStyle={&quot;edgeStyle&quot;:&quot;elbowEdgeStyle&quot;,&quot;elbow&quot;:&quot;vertical&quot;,&quot;curved&quot;:0,&quot;rounded&quot;:0};" parent="1" vertex="1">
          <mxGeometry x="220" y="40" width="100" height="540" as="geometry" />
        </mxCell>
        <mxCell id="Eow9V9qrAzXgovBorhqP-1" value="StudentUser&lt;br&gt;Dao" style="shape=umlLifeline;perimeter=lifelinePerimeter;whiteSpace=wrap;html=1;container=0;dropTarget=0;collapsible=0;recursiveResize=0;outlineConnect=0;portConstraint=eastwest;newEdgeStyle={&quot;edgeStyle&quot;:&quot;elbowEdgeStyle&quot;,&quot;elbow&quot;:&quot;vertical&quot;,&quot;curved&quot;:0,&quot;rounded&quot;:0};" parent="1" vertex="1">
          <mxGeometry x="410" y="40" width="100" height="870" as="geometry" />
        </mxCell>
        <mxCell id="Eow9V9qrAzXgovBorhqP-3" value="Database" style="shape=umlLifeline;perimeter=lifelinePerimeter;whiteSpace=wrap;html=1;container=0;dropTarget=0;collapsible=0;recursiveResize=0;outlineConnect=0;portConstraint=eastwest;newEdgeStyle={&quot;edgeStyle&quot;:&quot;elbowEdgeStyle&quot;,&quot;elbow&quot;:&quot;vertical&quot;,&quot;curved&quot;:0,&quot;rounded&quot;:0};" parent="1" vertex="1">
          <mxGeometry x="600" y="40" width="100" height="860" as="geometry" />
        </mxCell>
        <mxCell id="Eow9V9qrAzXgovBorhqP-5" value="Student" style="shape=umlActor;verticalLabelPosition=bottom;verticalAlign=top;html=1;outlineConnect=0;" parent="1" vertex="1">
          <mxGeometry x="-400" y="40" width="30" height="60" as="geometry" />
        </mxCell>
        <mxCell id="Eow9V9qrAzXgovBorhqP-17" value="1.login successful" style="text;html=1;strokeColor=none;fillColor=none;align=center;verticalAlign=middle;whiteSpace=wrap;rounded=0;" parent="1" vertex="1">
          <mxGeometry x="-320" y="100" width="60" height="30" as="geometry" />
        </mxCell>
        <mxCell id="Eow9V9qrAzXgovBorhqP-18" value="change word page" style="shape=umlLifeline;perimeter=lifelinePerimeter;whiteSpace=wrap;html=1;container=0;dropTarget=0;collapsible=0;recursiveResize=0;outlineConnect=0;portConstraint=eastwest;newEdgeStyle={&quot;edgeStyle&quot;:&quot;elbowEdgeStyle&quot;,&quot;elbow&quot;:&quot;vertical&quot;,&quot;curved&quot;:0,&quot;rounded&quot;:0};size=40;" parent="1" vertex="1">
          <mxGeometry x="-80" y="40" width="100" height="550" as="geometry" />
        </mxCell>
        <mxCell id="Eow9V9qrAzXgovBorhqP-19" value="Web" style="shape=umlLifeline;perimeter=lifelinePerimeter;whiteSpace=wrap;html=1;container=0;dropTarget=0;collapsible=0;recursiveResize=0;outlineConnect=0;portConstraint=eastwest;newEdgeStyle={&quot;edgeStyle&quot;:&quot;elbowEdgeStyle&quot;,&quot;elbow&quot;:&quot;vertical&quot;,&quot;curved&quot;:0,&quot;rounded&quot;:0};size=40;" parent="1" vertex="1">
          <mxGeometry x="-250" y="40" width="100" height="550" as="geometry" />
        </mxCell>
        <mxCell id="Eow9V9qrAzXgovBorhqP-30" value="2.change password" style="text;html=1;strokeColor=none;fillColor=none;align=center;verticalAlign=middle;whiteSpace=wrap;rounded=0;" parent="1" vertex="1">
          <mxGeometry x="-180" y="110" width="130" height="70" as="geometry" />
        </mxCell>
        <mxCell id="Eow9V9qrAzXgovBorhqP-49" value="3.Input&lt;br&gt;change&lt;br&gt;message" style="text;html=1;align=center;verticalAlign=middle;resizable=0;points=[];autosize=1;strokeColor=none;fillColor=none;" parent="1" vertex="1">
          <mxGeometry x="-5" y="150" width="70" height="60" as="geometry" />
        </mxCell>
        <mxCell id="Eow9V9qrAzXgovBorhqP-51" value="4.UpdatePassword" style="text;html=1;strokeColor=none;fillColor=none;align=center;verticalAlign=middle;whiteSpace=wrap;rounded=0;" parent="1" vertex="1">
          <mxGeometry x="120" y="210" width="130" height="30" as="geometry" />
        </mxCell>
        <mxCell id="Eow9V9qrAzXgovBorhqP-61" value="7.StudentUser" style="text;html=1;align=center;verticalAlign=middle;resizable=0;points=[];autosize=1;strokeColor=none;fillColor=none;" parent="1" vertex="1">
          <mxGeometry x="510" y="340" width="100" height="30" as="geometry" />
        </mxCell>
        <mxCell id="Eow9V9qrAzXgovBorhqP-79" value="&lt;span style=&quot;orphans: 2; text-align: center; text-indent: 0px; widows: 2; text-decoration-thickness: initial; text-decoration-style: initial; text-decoration-color: initial; float: none; display: inline !important;&quot;&gt;9.RuntimeException&lt;/span&gt;&lt;br style=&quot;border-color: rgb(0, 0, 0); orphans: 2; text-align: center; text-indent: 0px; widows: 2; text-decoration-thickness: initial; text-decoration-style: initial; text-decoration-color: initial;&quot;&gt;&lt;span style=&quot;orphans: 2; text-align: center; text-indent: 0px; widows: 2; text-decoration-thickness: initial; text-decoration-style: initial; text-decoration-color: initial; float: none; display: inline !important;&quot;&gt;message&lt;/span&gt;" style="text;html=1;strokeColor=none;fillColor=none;align=center;verticalAlign=middle;whiteSpace=wrap;rounded=0;" parent="1" vertex="1">
          <mxGeometry x="147.5" y="570" width="60" height="30" as="geometry" />
        </mxCell>
        <mxCell id="Eow9V9qrAzXgovBorhqP-81" value="11.Back to home page" style="text;html=1;strokeColor=none;fillColor=none;align=center;verticalAlign=middle;whiteSpace=wrap;rounded=0;" parent="1" vertex="1">
          <mxGeometry x="-170" y="640" width="110" height="30" as="geometry" />
        </mxCell>
        <mxCell id="Eow9V9qrAzXgovBorhqP-108" style="edgeStyle=orthogonalEdgeStyle;rounded=0;orthogonalLoop=1;jettySize=auto;html=1;exitX=1;exitY=0.03;exitDx=0;exitDy=0;exitPerimeter=0;entryX=0;entryY=0.03;entryDx=0;entryDy=0;entryPerimeter=0;" parent="1" source="Eow9V9qrAzXgovBorhqP-92" target="Eow9V9qrAzXgovBorhqP-93" edge="1">
          <mxGeometry relative="1" as="geometry" />
        </mxCell>
        <mxCell id="VWIVNXtLc2JzitBILpdr-39" style="edgeStyle=orthogonalEdgeStyle;rounded=0;orthogonalLoop=1;jettySize=auto;html=1;exitX=0;exitY=0.77;exitDx=0;exitDy=0;exitPerimeter=0;entryX=1;entryY=0.77;entryDx=0;entryDy=0;entryPerimeter=0;dashed=1;" parent="1" source="Eow9V9qrAzXgovBorhqP-92" target="Eow9V9qrAzXgovBorhqP-98" edge="1">
          <mxGeometry relative="1" as="geometry" />
        </mxCell>
        <mxCell id="vDmHu0oKjdfktITi1YO7-8" style="edgeStyle=orthogonalEdgeStyle;rounded=0;orthogonalLoop=1;jettySize=auto;html=1;exitX=0;exitY=0.48;exitDx=0;exitDy=0;exitPerimeter=0;entryX=1;entryY=0.48;entryDx=0;entryDy=0;entryPerimeter=0;dashed=1;" parent="1" source="Eow9V9qrAzXgovBorhqP-92" target="Eow9V9qrAzXgovBorhqP-98" edge="1">
          <mxGeometry relative="1" as="geometry" />
        </mxCell>
        <mxCell id="Eow9V9qrAzXgovBorhqP-92" value="" style="rounded=0;whiteSpace=wrap;html=1;points=[[0,0,0,0,0],[0,0.03,0,0,0],[0,0.06,0,0,0],[0,0.1,0,0,0],[0,0.13,0,0,0],[0,0.16,0,0,0],[0,0.19,0,0,0],[0,0.23,0,0,0],[0,0.25,0,0,0],[0,0.26,0,0,0],[0,0.29,0,0,0],[0,0.32,0,0,0],[0,0.35,0,0,0],[0,0.39,0,0,0],[0,0.42,0,0,0],[0,0.45,0,0,0],[0,0.48,0,0,0],[0,0.5,0,0,0],[0,0.52,0,0,0],[0,0.55,0,0,0],[0,0.58,0,0,0],[0,0.61,0,0,0],[0,0.65,0,0,0],[0,0.68,0,0,0],[0,0.71,0,0,0],[0,0.74,0,0,0],[0,0.75,0,0,0],[0,0.77,0,0,0],[0,0.81,0,0,0],[0,0.84,0,0,0],[0,0.87,0,0,0],[0,0.9,0,0,0],[0,0.94,0,0,0],[0,0.97,0,0,0],[0,1,0,0,0],[0.25,0,0,0,0],[0.25,1,0,0,0],[0.5,0,0,0,0],[0.5,1,0,0,0],[0.75,0,0,0,0],[0.75,1,0,0,0],[1,0,0,0,0],[1,0.03,0,0,0],[1,0.06,0,0,0],[1,0.1,0,0,0],[1,0.13,0,0,0],[1,0.16,0,0,0],[1,0.19,0,0,0],[1,0.23,0,0,0],[1,0.25,0,0,0],[1,0.26,0,0,0],[1,0.29,0,0,0],[1,0.32,0,0,0],[1,0.35,0,0,0],[1,0.39,0,0,0],[1,0.42,0,0,0],[1,0.45,0,0,0],[1,0.48,0,0,0],[1,0.5,0,0,0],[1,0.52,0,0,0],[1,0.55,0,0,0],[1,0.58,0,0,0],[1,0.61,0,0,0],[1,0.65,0,0,0],[1,0.68,0,0,0],[1,0.71,0,0,0],[1,0.74,0,0,0],[1,0.75,0,0,0],[1,0.77,0,0,0],[1,0.81,0,0,0],[1,0.84,0,0,0],[1,0.87,0,0,0],[1,0.9,0,0,0],[1,0.94,0,0,0],[1,0.97,0,0,0],[1,1,0,0,0]];" parent="1" vertex="1">
          <mxGeometry x="-207.5" y="130" width="15" height="1240" as="geometry" />
        </mxCell>
        <mxCell id="Eow9V9qrAzXgovBorhqP-109" style="edgeStyle=orthogonalEdgeStyle;rounded=0;orthogonalLoop=1;jettySize=auto;html=1;exitX=1;exitY=0.06;exitDx=0;exitDy=0;exitPerimeter=0;entryX=0;entryY=0.06;entryDx=0;entryDy=0;entryPerimeter=0;" parent="1" source="Eow9V9qrAzXgovBorhqP-93" target="Eow9V9qrAzXgovBorhqP-99" edge="1">
          <mxGeometry relative="1" as="geometry" />
        </mxCell>
        <mxCell id="Eow9V9qrAzXgovBorhqP-98" value="" style="rounded=0;whiteSpace=wrap;html=1;points=[[0,0,0,0,0],[0,0.03,0,0,0],[0,0.06,0,0,0],[0,0.1,0,0,0],[0,0.13,0,0,0],[0,0.16,0,0,0],[0,0.19,0,0,0],[0,0.23,0,0,0],[0,0.25,0,0,0],[0,0.26,0,0,0],[0,0.29,0,0,0],[0,0.32,0,0,0],[0,0.35,0,0,0],[0,0.39,0,0,0],[0,0.42,0,0,0],[0,0.45,0,0,0],[0,0.48,0,0,0],[0,0.5,0,0,0],[0,0.52,0,0,0],[0,0.55,0,0,0],[0,0.58,0,0,0],[0,0.61,0,0,0],[0,0.65,0,0,0],[0,0.68,0,0,0],[0,0.71,0,0,0],[0,0.74,0,0,0],[0,0.75,0,0,0],[0,0.77,0,0,0],[0,0.81,0,0,0],[0,0.84,0,0,0],[0,0.87,0,0,0],[0,0.9,0,0,0],[0,0.94,0,0,0],[0,0.97,0,0,0],[0,1,0,0,0],[0.25,0,0,0,0],[0.25,1,0,0,0],[0.5,0,0,0,0],[0.5,1,0,0,0],[0.75,0,0,0,0],[0.75,1,0,0,0],[1,0,0,0,0],[1,0.03,0,0,0],[1,0.06,0,0,0],[1,0.1,0,0,0],[1,0.13,0,0,0],[1,0.16,0,0,0],[1,0.19,0,0,0],[1,0.23,0,0,0],[1,0.25,0,0,0],[1,0.26,0,0,0],[1,0.29,0,0,0],[1,0.32,0,0,0],[1,0.35,0,0,0],[1,0.39,0,0,0],[1,0.42,0,0,0],[1,0.45,0,0,0],[1,0.48,0,0,0],[1,0.5,0,0,0],[1,0.52,0,0,0],[1,0.55,0,0,0],[1,0.58,0,0,0],[1,0.61,0,0,0],[1,0.65,0,0,0],[1,0.68,0,0,0],[1,0.71,0,0,0],[1,0.74,0,0,0],[1,0.75,0,0,0],[1,0.77,0,0,0],[1,0.81,0,0,0],[1,0.84,0,0,0],[1,0.87,0,0,0],[1,0.9,0,0,0],[1,0.94,0,0,0],[1,0.97,0,0,0],[1,1,0,0,0]];" parent="1" vertex="1">
          <mxGeometry x="-392.5" y="130" width="15" height="1240" as="geometry" />
        </mxCell>
        <mxCell id="VWIVNXtLc2JzitBILpdr-38" style="edgeStyle=orthogonalEdgeStyle;rounded=0;orthogonalLoop=1;jettySize=auto;html=1;exitX=0;exitY=0.74;exitDx=0;exitDy=0;exitPerimeter=0;entryX=1;entryY=0.74;entryDx=0;entryDy=0;entryPerimeter=0;dashed=1;" parent="1" source="Eow9V9qrAzXgovBorhqP-93" target="Eow9V9qrAzXgovBorhqP-92" edge="1">
          <mxGeometry relative="1" as="geometry" />
        </mxCell>
        <mxCell id="vDmHu0oKjdfktITi1YO7-7" style="edgeStyle=orthogonalEdgeStyle;rounded=0;orthogonalLoop=1;jettySize=auto;html=1;exitX=0;exitY=0.45;exitDx=0;exitDy=0;exitPerimeter=0;entryX=1;entryY=0.45;entryDx=0;entryDy=0;entryPerimeter=0;dashed=1;" parent="1" source="Eow9V9qrAzXgovBorhqP-93" target="Eow9V9qrAzXgovBorhqP-92" edge="1">
          <mxGeometry relative="1" as="geometry" />
        </mxCell>
        <mxCell id="Eow9V9qrAzXgovBorhqP-93" value="" style="rounded=0;whiteSpace=wrap;html=1;points=[[0,0,0,0,0],[0,0.03,0,0,0],[0,0.06,0,0,0],[0,0.1,0,0,0],[0,0.13,0,0,0],[0,0.16,0,0,0],[0,0.19,0,0,0],[0,0.23,0,0,0],[0,0.25,0,0,0],[0,0.26,0,0,0],[0,0.29,0,0,0],[0,0.32,0,0,0],[0,0.35,0,0,0],[0,0.39,0,0,0],[0,0.42,0,0,0],[0,0.45,0,0,0],[0,0.48,0,0,0],[0,0.5,0,0,0],[0,0.52,0,0,0],[0,0.55,0,0,0],[0,0.58,0,0,0],[0,0.61,0,0,0],[0,0.65,0,0,0],[0,0.68,0,0,0],[0,0.71,0,0,0],[0,0.74,0,0,0],[0,0.75,0,0,0],[0,0.77,0,0,0],[0,0.81,0,0,0],[0,0.84,0,0,0],[0,0.87,0,0,0],[0,0.9,0,0,0],[0,0.94,0,0,0],[0,0.97,0,0,0],[0,1,0,0,0],[0.25,0,0,0,0],[0.25,1,0,0,0],[0.5,0,0,0,0],[0.5,1,0,0,0],[0.75,0,0,0,0],[0.75,1,0,0,0],[1,0,0,0,0],[1,0.03,0,0,0],[1,0.06,0,0,0],[1,0.1,0,0,0],[1,0.13,0,0,0],[1,0.16,0,0,0],[1,0.19,0,0,0],[1,0.23,0,0,0],[1,0.25,0,0,0],[1,0.26,0,0,0],[1,0.29,0,0,0],[1,0.32,0,0,0],[1,0.35,0,0,0],[1,0.39,0,0,0],[1,0.42,0,0,0],[1,0.45,0,0,0],[1,0.48,0,0,0],[1,0.5,0,0,0],[1,0.52,0,0,0],[1,0.55,0,0,0],[1,0.58,0,0,0],[1,0.61,0,0,0],[1,0.65,0,0,0],[1,0.68,0,0,0],[1,0.71,0,0,0],[1,0.74,0,0,0],[1,0.75,0,0,0],[1,0.77,0,0,0],[1,0.81,0,0,0],[1,0.84,0,0,0],[1,0.87,0,0,0],[1,0.9,0,0,0],[1,0.94,0,0,0],[1,0.97,0,0,0],[1,1,0,0,0]];" parent="1" vertex="1">
          <mxGeometry x="-40" y="130" width="15" height="1240" as="geometry" />
        </mxCell>
        <mxCell id="Eow9V9qrAzXgovBorhqP-107" style="edgeStyle=orthogonalEdgeStyle;rounded=0;orthogonalLoop=1;jettySize=auto;html=1;exitX=1;exitY=0;exitDx=0;exitDy=0;entryX=0;entryY=0;entryDx=0;entryDy=0;entryPerimeter=0;" parent="1" source="Eow9V9qrAzXgovBorhqP-98" target="Eow9V9qrAzXgovBorhqP-92" edge="1">
          <mxGeometry relative="1" as="geometry">
            <Array as="points">
              <mxPoint x="-230" y="130" />
              <mxPoint x="-230" y="130" />
            </Array>
          </mxGeometry>
        </mxCell>
        <mxCell id="Eow9V9qrAzXgovBorhqP-110" style="edgeStyle=orthogonalEdgeStyle;rounded=0;orthogonalLoop=1;jettySize=auto;html=1;exitX=1;exitY=0.1;exitDx=0;exitDy=0;exitPerimeter=0;entryX=0;entryY=0.1;entryDx=0;entryDy=0;entryPerimeter=0;" parent="1" source="Eow9V9qrAzXgovBorhqP-99" target="Eow9V9qrAzXgovBorhqP-100" edge="1">
          <mxGeometry relative="1" as="geometry" />
        </mxCell>
        <mxCell id="VWIVNXtLc2JzitBILpdr-37" style="edgeStyle=orthogonalEdgeStyle;rounded=0;orthogonalLoop=1;jettySize=auto;html=1;exitX=0;exitY=0.71;exitDx=0;exitDy=0;exitPerimeter=0;entryX=1;entryY=0.71;entryDx=0;entryDy=0;entryPerimeter=0;dashed=1;" parent="1" source="Eow9V9qrAzXgovBorhqP-99" target="Eow9V9qrAzXgovBorhqP-93" edge="1">
          <mxGeometry relative="1" as="geometry" />
        </mxCell>
        <mxCell id="vDmHu0oKjdfktITi1YO7-6" style="edgeStyle=orthogonalEdgeStyle;rounded=0;orthogonalLoop=1;jettySize=auto;html=1;exitX=0;exitY=0.42;exitDx=0;exitDy=0;exitPerimeter=0;entryX=1;entryY=0.42;entryDx=0;entryDy=0;entryPerimeter=0;dashed=1;" parent="1" source="Eow9V9qrAzXgovBorhqP-99" target="Eow9V9qrAzXgovBorhqP-93" edge="1">
          <mxGeometry relative="1" as="geometry" />
        </mxCell>
        <mxCell id="Eow9V9qrAzXgovBorhqP-99" value="" style="rounded=0;whiteSpace=wrap;html=1;points=[[0,0,0,0,0],[0,0.03,0,0,0],[0,0.06,0,0,0],[0,0.1,0,0,0],[0,0.13,0,0,0],[0,0.16,0,0,0],[0,0.19,0,0,0],[0,0.23,0,0,0],[0,0.25,0,0,0],[0,0.26,0,0,0],[0,0.29,0,0,0],[0,0.32,0,0,0],[0,0.35,0,0,0],[0,0.39,0,0,0],[0,0.42,0,0,0],[0,0.45,0,0,0],[0,0.48,0,0,0],[0,0.5,0,0,0],[0,0.52,0,0,0],[0,0.55,0,0,0],[0,0.58,0,0,0],[0,0.61,0,0,0],[0,0.65,0,0,0],[0,0.68,0,0,0],[0,0.71,0,0,0],[0,0.74,0,0,0],[0,0.75,0,0,0],[0,0.77,0,0,0],[0,0.81,0,0,0],[0,0.84,0,0,0],[0,0.87,0,0,0],[0,0.9,0,0,0],[0,0.94,0,0,0],[0,0.97,0,0,0],[0,1,0,0,0],[0.25,0,0,0,0],[0.25,1,0,0,0],[0.5,0,0,0,0],[0.5,1,0,0,0],[0.75,0,0,0,0],[0.75,1,0,0,0],[1,0,0,0,0],[1,0.03,0,0,0],[1,0.06,0,0,0],[1,0.1,0,0,0],[1,0.13,0,0,0],[1,0.16,0,0,0],[1,0.19,0,0,0],[1,0.23,0,0,0],[1,0.25,0,0,0],[1,0.26,0,0,0],[1,0.29,0,0,0],[1,0.32,0,0,0],[1,0.35,0,0,0],[1,0.39,0,0,0],[1,0.42,0,0,0],[1,0.45,0,0,0],[1,0.48,0,0,0],[1,0.5,0,0,0],[1,0.52,0,0,0],[1,0.55,0,0,0],[1,0.58,0,0,0],[1,0.61,0,0,0],[1,0.65,0,0,0],[1,0.68,0,0,0],[1,0.71,0,0,0],[1,0.74,0,0,0],[1,0.75,0,0,0],[1,0.77,0,0,0],[1,0.81,0,0,0],[1,0.84,0,0,0],[1,0.87,0,0,0],[1,0.9,0,0,0],[1,0.94,0,0,0],[1,0.97,0,0,0],[1,1,0,0,0]];" parent="1" vertex="1">
          <mxGeometry x="82.5" y="130" width="15" height="1240" as="geometry" />
        </mxCell>
        <mxCell id="vDmHu0oKjdfktITi1YO7-4" style="edgeStyle=orthogonalEdgeStyle;rounded=0;orthogonalLoop=1;jettySize=auto;html=1;exitX=0;exitY=0.39;exitDx=0;exitDy=0;exitPerimeter=0;entryX=1;entryY=0.39;entryDx=0;entryDy=0;entryPerimeter=0;dashed=1;" parent="1" source="Eow9V9qrAzXgovBorhqP-100" target="Eow9V9qrAzXgovBorhqP-99" edge="1">
          <mxGeometry relative="1" as="geometry" />
        </mxCell>
        <mxCell id="vDmHu0oKjdfktITi1YO7-10" style="edgeStyle=orthogonalEdgeStyle;rounded=0;orthogonalLoop=1;jettySize=auto;html=1;exitX=1;exitY=0.52;exitDx=0;exitDy=0;exitPerimeter=0;entryX=0;entryY=0.52;entryDx=0;entryDy=0;entryPerimeter=0;" parent="1" source="Eow9V9qrAzXgovBorhqP-100" target="Eow9V9qrAzXgovBorhqP-101" edge="1">
          <mxGeometry relative="1" as="geometry" />
        </mxCell>
        <mxCell id="vDmHu0oKjdfktITi1YO7-15" style="edgeStyle=orthogonalEdgeStyle;rounded=0;orthogonalLoop=1;jettySize=auto;html=1;exitX=1;exitY=0.13;exitDx=0;exitDy=0;exitPerimeter=0;entryX=0;entryY=0.13;entryDx=0;entryDy=0;entryPerimeter=0;" parent="1" source="Eow9V9qrAzXgovBorhqP-100" target="Eow9V9qrAzXgovBorhqP-101" edge="1">
          <mxGeometry relative="1" as="geometry" />
        </mxCell>
        <mxCell id="vDmHu0oKjdfktITi1YO7-20" style="edgeStyle=orthogonalEdgeStyle;rounded=0;orthogonalLoop=1;jettySize=auto;html=1;exitX=0;exitY=0.65;exitDx=0;exitDy=0;exitPerimeter=0;entryX=1;entryY=0.65;entryDx=0;entryDy=0;entryPerimeter=0;dashed=1;" parent="1" source="Eow9V9qrAzXgovBorhqP-100" target="Eow9V9qrAzXgovBorhqP-99" edge="1">
          <mxGeometry relative="1" as="geometry" />
        </mxCell>
        <mxCell id="Eow9V9qrAzXgovBorhqP-100" value="" style="rounded=0;whiteSpace=wrap;html=1;points=[[0,0,0,0,0],[0,0.03,0,0,0],[0,0.06,0,0,0],[0,0.1,0,0,0],[0,0.13,0,0,0],[0,0.16,0,0,0],[0,0.19,0,0,0],[0,0.23,0,0,0],[0,0.25,0,0,0],[0,0.26,0,0,0],[0,0.29,0,0,0],[0,0.32,0,0,0],[0,0.35,0,0,0],[0,0.39,0,0,0],[0,0.42,0,0,0],[0,0.45,0,0,0],[0,0.48,0,0,0],[0,0.5,0,0,0],[0,0.52,0,0,0],[0,0.55,0,0,0],[0,0.58,0,0,0],[0,0.61,0,0,0],[0,0.65,0,0,0],[0,0.68,0,0,0],[0,0.71,0,0,0],[0,0.74,0,0,0],[0,0.75,0,0,0],[0,0.77,0,0,0],[0,0.81,0,0,0],[0,0.84,0,0,0],[0,0.87,0,0,0],[0,0.9,0,0,0],[0,0.94,0,0,0],[0,0.97,0,0,0],[0,1,0,0,0],[0.25,0,0,0,0],[0.25,1,0,0,0],[0.5,0,0,0,0],[0.5,1,0,0,0],[0.75,0,0,0,0],[0.75,1,0,0,0],[1,0,0,0,0],[1,0.03,0,0,0],[1,0.06,0,0,0],[1,0.1,0,0,0],[1,0.13,0,0,0],[1,0.16,0,0,0],[1,0.19,0,0,0],[1,0.23,0,0,0],[1,0.25,0,0,0],[1,0.26,0,0,0],[1,0.29,0,0,0],[1,0.32,0,0,0],[1,0.35,0,0,0],[1,0.39,0,0,0],[1,0.42,0,0,0],[1,0.45,0,0,0],[1,0.48,0,0,0],[1,0.5,0,0,0],[1,0.52,0,0,0],[1,0.55,0,0,0],[1,0.58,0,0,0],[1,0.61,0,0,0],[1,0.65,0,0,0],[1,0.68,0,0,0],[1,0.71,0,0,0],[1,0.74,0,0,0],[1,0.75,0,0,0],[1,0.77,0,0,0],[1,0.81,0,0,0],[1,0.84,0,0,0],[1,0.87,0,0,0],[1,0.9,0,0,0],[1,0.94,0,0,0],[1,0.97,0,0,0],[1,1,0,0,0]];" parent="1" vertex="1">
          <mxGeometry x="262.5" y="130" width="15" height="1240" as="geometry" />
        </mxCell>
        <mxCell id="VWIVNXtLc2JzitBILpdr-11" style="edgeStyle=orthogonalEdgeStyle;rounded=0;orthogonalLoop=1;jettySize=auto;html=1;exitX=1;exitY=0.16;exitDx=0;exitDy=0;exitPerimeter=0;entryX=0;entryY=0.16;entryDx=0;entryDy=0;entryPerimeter=0;" parent="1" source="Eow9V9qrAzXgovBorhqP-101" target="Eow9V9qrAzXgovBorhqP-102" edge="1">
          <mxGeometry relative="1" as="geometry" />
        </mxCell>
        <mxCell id="VWIVNXtLc2JzitBILpdr-14" style="edgeStyle=orthogonalEdgeStyle;rounded=0;orthogonalLoop=1;jettySize=auto;html=1;exitX=0;exitY=0.23;exitDx=0;exitDy=0;exitPerimeter=0;entryX=1;entryY=0.23;entryDx=0;entryDy=0;entryPerimeter=0;dashed=1;" parent="1" source="Eow9V9qrAzXgovBorhqP-101" target="Eow9V9qrAzXgovBorhqP-100" edge="1">
          <mxGeometry relative="1" as="geometry" />
        </mxCell>
        <mxCell id="vDmHu0oKjdfktITi1YO7-13" style="edgeStyle=orthogonalEdgeStyle;rounded=0;orthogonalLoop=1;jettySize=auto;html=1;exitX=1;exitY=0.55;exitDx=0;exitDy=0;exitPerimeter=0;entryX=0;entryY=0.55;entryDx=0;entryDy=0;entryPerimeter=0;" parent="1" source="Eow9V9qrAzXgovBorhqP-101" target="Eow9V9qrAzXgovBorhqP-102" edge="1">
          <mxGeometry relative="1" as="geometry" />
        </mxCell>
        <mxCell id="vDmHu0oKjdfktITi1YO7-19" style="edgeStyle=orthogonalEdgeStyle;rounded=0;orthogonalLoop=1;jettySize=auto;html=1;exitX=0;exitY=0.61;exitDx=0;exitDy=0;exitPerimeter=0;entryX=1;entryY=0.61;entryDx=0;entryDy=0;entryPerimeter=0;dashed=1;" parent="1" source="Eow9V9qrAzXgovBorhqP-101" target="Eow9V9qrAzXgovBorhqP-100" edge="1">
          <mxGeometry relative="1" as="geometry" />
        </mxCell>
        <mxCell id="Eow9V9qrAzXgovBorhqP-101" value="" style="rounded=0;whiteSpace=wrap;html=1;points=[[0,0,0,0,0],[0,0.03,0,0,0],[0,0.06,0,0,0],[0,0.1,0,0,0],[0,0.13,0,0,0],[0,0.16,0,0,0],[0,0.19,0,0,0],[0,0.23,0,0,0],[0,0.25,0,0,0],[0,0.26,0,0,0],[0,0.29,0,0,0],[0,0.32,0,0,0],[0,0.35,0,0,0],[0,0.39,0,0,0],[0,0.42,0,0,0],[0,0.45,0,0,0],[0,0.48,0,0,0],[0,0.5,0,0,0],[0,0.52,0,0,0],[0,0.55,0,0,0],[0,0.58,0,0,0],[0,0.61,0,0,0],[0,0.65,0,0,0],[0,0.68,0,0,0],[0,0.71,0,0,0],[0,0.74,0,0,0],[0,0.75,0,0,0],[0,0.77,0,0,0],[0,0.81,0,0,0],[0,0.84,0,0,0],[0,0.87,0,0,0],[0,0.9,0,0,0],[0,0.94,0,0,0],[0,0.97,0,0,0],[0,1,0,0,0],[0.25,0,0,0,0],[0.25,1,0,0,0],[0.5,0,0,0,0],[0.5,1,0,0,0],[0.75,0,0,0,0],[0.75,1,0,0,0],[1,0,0,0,0],[1,0.03,0,0,0],[1,0.06,0,0,0],[1,0.1,0,0,0],[1,0.13,0,0,0],[1,0.16,0,0,0],[1,0.19,0,0,0],[1,0.23,0,0,0],[1,0.25,0,0,0],[1,0.26,0,0,0],[1,0.29,0,0,0],[1,0.32,0,0,0],[1,0.35,0,0,0],[1,0.39,0,0,0],[1,0.42,0,0,0],[1,0.45,0,0,0],[1,0.48,0,0,0],[1,0.5,0,0,0],[1,0.52,0,0,0],[1,0.55,0,0,0],[1,0.58,0,0,0],[1,0.61,0,0,0],[1,0.65,0,0,0],[1,0.68,0,0,0],[1,0.71,0,0,0],[1,0.74,0,0,0],[1,0.75,0,0,0],[1,0.77,0,0,0],[1,0.81,0,0,0],[1,0.84,0,0,0],[1,0.87,0,0,0],[1,0.9,0,0,0],[1,0.94,0,0,0],[1,0.97,0,0,0],[1,1,0,0,0]];" parent="1" vertex="1">
          <mxGeometry x="452.5" y="130" width="15" height="1240" as="geometry" />
        </mxCell>
        <mxCell id="VWIVNXtLc2JzitBILpdr-13" style="edgeStyle=orthogonalEdgeStyle;rounded=0;orthogonalLoop=1;jettySize=auto;html=1;exitX=0;exitY=0.19;exitDx=0;exitDy=0;exitPerimeter=0;entryX=1;entryY=0.19;entryDx=0;entryDy=0;entryPerimeter=0;dashed=1;" parent="1" source="Eow9V9qrAzXgovBorhqP-102" target="Eow9V9qrAzXgovBorhqP-101" edge="1">
          <mxGeometry relative="1" as="geometry" />
        </mxCell>
        <mxCell id="vDmHu0oKjdfktITi1YO7-17" style="edgeStyle=orthogonalEdgeStyle;rounded=0;orthogonalLoop=1;jettySize=auto;html=1;entryX=1;entryY=0.58;entryDx=0;entryDy=0;entryPerimeter=0;dashed=1;" parent="1" target="Eow9V9qrAzXgovBorhqP-101" edge="1">
          <mxGeometry relative="1" as="geometry">
            <mxPoint x="643" y="849" as="sourcePoint" />
          </mxGeometry>
        </mxCell>
        <mxCell id="Eow9V9qrAzXgovBorhqP-102" value="" style="rounded=0;whiteSpace=wrap;html=1;points=[[0,0,0,0,0],[0,0.03,0,0,0],[0,0.06,0,0,0],[0,0.1,0,0,0],[0,0.13,0,0,0],[0,0.16,0,0,0],[0,0.19,0,0,0],[0,0.23,0,0,0],[0,0.25,0,0,0],[0,0.26,0,0,0],[0,0.29,0,0,0],[0,0.32,0,0,0],[0,0.35,0,0,0],[0,0.39,0,0,0],[0,0.42,0,0,0],[0,0.45,0,0,0],[0,0.48,0,0,0],[0,0.5,0,0,0],[0,0.52,0,0,0],[0,0.55,0,0,0],[0,0.58,0,0,0],[0,0.61,0,0,0],[0,0.65,0,0,0],[0,0.68,0,0,0],[0,0.71,0,0,0],[0,0.74,0,0,0],[0,0.75,0,0,0],[0,0.77,0,0,0],[0,0.81,0,0,0],[0,0.84,0,0,0],[0,0.87,0,0,0],[0,0.9,0,0,0],[0,0.94,0,0,0],[0,0.97,0,0,0],[0,1,0,0,0],[0.25,0,0,0,0],[0.25,1,0,0,0],[0.5,0,0,0,0],[0.5,1,0,0,0],[0.75,0,0,0,0],[0.75,1,0,0,0],[1,0,0,0,0],[1,0.03,0,0,0],[1,0.06,0,0,0],[1,0.1,0,0,0],[1,0.13,0,0,0],[1,0.16,0,0,0],[1,0.19,0,0,0],[1,0.23,0,0,0],[1,0.25,0,0,0],[1,0.26,0,0,0],[1,0.29,0,0,0],[1,0.32,0,0,0],[1,0.35,0,0,0],[1,0.39,0,0,0],[1,0.42,0,0,0],[1,0.45,0,0,0],[1,0.48,0,0,0],[1,0.5,0,0,0],[1,0.52,0,0,0],[1,0.55,0,0,0],[1,0.58,0,0,0],[1,0.61,0,0,0],[1,0.65,0,0,0],[1,0.68,0,0,0],[1,0.71,0,0,0],[1,0.74,0,0,0],[1,0.75,0,0,0],[1,0.77,0,0,0],[1,0.81,0,0,0],[1,0.84,0,0,0],[1,0.87,0,0,0],[1,0.9,0,0,0],[1,0.94,0,0,0],[1,0.97,0,0,0],[1,1,0,0,0]];" parent="1" vertex="1">
          <mxGeometry x="642.5" y="130" width="15" height="1240" as="geometry" />
        </mxCell>
        <mxCell id="Eow9V9qrAzXgovBorhqP-121" value="Par" style="text;html=1;strokeColor=none;fillColor=none;align=center;verticalAlign=middle;whiteSpace=wrap;rounded=0;" parent="1" vertex="1">
          <mxGeometry x="200" y="290" width="60" height="30" as="geometry" />
        </mxCell>
        <mxCell id="Eow9V9qrAzXgovBorhqP-122" value="8. currentPassword" style="text;html=1;align=center;verticalAlign=middle;resizable=0;points=[];autosize=1;strokeColor=none;fillColor=none;" parent="1" vertex="1">
          <mxGeometry x="295" y="380" width="130" height="30" as="geometry" />
        </mxCell>
        <mxCell id="Eow9V9qrAzXgovBorhqP-187" value="12.change password failed" style="text;html=1;strokeColor=none;fillColor=none;align=center;verticalAlign=middle;whiteSpace=wrap;rounded=0;" parent="1" vertex="1">
          <mxGeometry x="-343.75" y="680" width="110" height="30" as="geometry" />
        </mxCell>
        <mxCell id="Eow9V9qrAzXgovBorhqP-193" value="12.wrong message" style="text;html=1;strokeColor=none;fillColor=none;align=center;verticalAlign=middle;whiteSpace=wrap;rounded=0;" parent="1" vertex="1">
          <mxGeometry y="600" width="60" height="30" as="geometry" />
        </mxCell>
        <mxCell id="VWIVNXtLc2JzitBILpdr-2" value="6.findByUsername (username)" style="text;html=1;strokeColor=none;fillColor=none;align=center;verticalAlign=middle;whiteSpace=wrap;rounded=0;" parent="1" vertex="1">
          <mxGeometry x="530" y="300" width="60" height="30" as="geometry" />
        </mxCell>
        <mxCell id="VWIVNXtLc2JzitBILpdr-3" value="5.UpdatePassword()" style="text;html=1;strokeColor=none;fillColor=none;align=center;verticalAlign=middle;whiteSpace=wrap;rounded=0;" parent="1" vertex="1">
          <mxGeometry x="310" y="250" width="130" height="30" as="geometry" />
        </mxCell>
        <mxCell id="VWIVNXtLc2JzitBILpdr-19" value="ALT" style="text;html=1;strokeColor=none;fillColor=none;align=center;verticalAlign=middle;whiteSpace=wrap;rounded=0;" parent="1" vertex="1">
          <mxGeometry x="-450" y="510" width="60" height="30" as="geometry" />
        </mxCell>
        <mxCell id="VWIVNXtLc2JzitBILpdr-27" value="{password not match}" style="text;html=1;strokeColor=none;fillColor=none;align=center;verticalAlign=middle;whiteSpace=wrap;rounded=0;" parent="1" vertex="1">
          <mxGeometry x="-385" y="520" width="192.5" height="30" as="geometry" />
        </mxCell>
        <mxCell id="VWIVNXtLc2JzitBILpdr-48" value="12.Back to home page" style="text;html=1;strokeColor=none;fillColor=none;align=center;verticalAlign=middle;whiteSpace=wrap;rounded=0;" parent="1" vertex="1">
          <mxGeometry x="-170" y="1015" width="110" height="30" as="geometry" />
        </mxCell>
        <mxCell id="VWIVNXtLc2JzitBILpdr-53" value="13..change password successfully" style="text;html=1;strokeColor=none;fillColor=none;align=center;verticalAlign=middle;whiteSpace=wrap;rounded=0;" parent="1" vertex="1">
          <mxGeometry x="-348.75" y="1040" width="110" height="30" as="geometry" />
        </mxCell>
        <mxCell id="VWIVNXtLc2JzitBILpdr-55" value="{else}" style="text;html=1;strokeColor=none;fillColor=none;align=center;verticalAlign=middle;whiteSpace=wrap;rounded=0;" parent="1" vertex="1">
          <mxGeometry x="-392.5" y="750" width="192.5" height="30" as="geometry" />
        </mxCell>
        <mxCell id="VWIVNXtLc2JzitBILpdr-56" value="ALT" style="text;html=1;strokeColor=none;fillColor=none;align=center;verticalAlign=middle;whiteSpace=wrap;rounded=0;" parent="1" vertex="1">
          <mxGeometry x="-440" y="940" width="60" height="30" as="geometry" />
        </mxCell>
        <mxCell id="vDmHu0oKjdfktITi1YO7-2" style="edgeStyle=orthogonalEdgeStyle;rounded=0;orthogonalLoop=1;jettySize=auto;html=1;exitX=1;exitY=0.26;exitDx=0;exitDy=0;exitPerimeter=0;entryX=1;entryY=0.29;entryDx=0;entryDy=0;entryPerimeter=0;" parent="1" source="Eow9V9qrAzXgovBorhqP-100" target="Eow9V9qrAzXgovBorhqP-100" edge="1">
          <mxGeometry relative="1" as="geometry">
            <Array as="points">
              <mxPoint x="310" y="452" />
              <mxPoint x="310" y="490" />
            </Array>
          </mxGeometry>
        </mxCell>
        <mxCell id="vDmHu0oKjdfktITi1YO7-3" value="9.passwordEncoder .match()" style="text;html=1;strokeColor=none;fillColor=none;align=center;verticalAlign=middle;whiteSpace=wrap;rounded=0;" parent="1" vertex="1">
          <mxGeometry x="350" y="460" width="60" height="30" as="geometry" />
        </mxCell>
        <mxCell id="vDmHu0oKjdfktITi1YO7-14" value="10.Update ()" style="text;html=1;strokeColor=none;fillColor=none;align=center;verticalAlign=middle;whiteSpace=wrap;rounded=0;" parent="1" vertex="1">
          <mxGeometry x="515" y="780" width="90" height="30" as="geometry" />
        </mxCell>
        <mxCell id="vDmHu0oKjdfktITi1YO7-16" value="9.UpdatePassword()" style="text;html=1;strokeColor=none;fillColor=none;align=center;verticalAlign=middle;whiteSpace=wrap;rounded=0;" parent="1" vertex="1">
          <mxGeometry x="295" y="740" width="130" height="30" as="geometry" />
        </mxCell>
        <mxCell id="vDmHu0oKjdfktITi1YO7-18" value="11.row change" style="text;html=1;strokeColor=none;fillColor=none;align=center;verticalAlign=middle;whiteSpace=wrap;rounded=0;" parent="1" vertex="1">
          <mxGeometry x="515" y="820" width="90" height="30" as="geometry" />
        </mxCell>
        <mxCell id="vDmHu0oKjdfktITi1YO7-22" value="13.&amp;nbsp;update success&lt;br&gt;message" style="text;html=1;strokeColor=none;fillColor=none;align=center;verticalAlign=middle;whiteSpace=wrap;rounded=0;" parent="1" vertex="1">
          <mxGeometry x="147.5" y="900" width="60" height="30" as="geometry" />
        </mxCell>
        <mxCell id="vDmHu0oKjdfktITi1YO7-23" value="12. update success&lt;br&gt;message" style="text;html=1;strokeColor=none;fillColor=none;align=center;verticalAlign=middle;whiteSpace=wrap;rounded=0;" parent="1" vertex="1">
          <mxGeometry x="320" y="850" width="90" height="30" as="geometry" />
        </mxCell>
        <mxCell id="vDmHu0oKjdfktITi1YO7-24" value="&amp;nbsp;14.update success&lt;br&gt;message" style="text;html=1;strokeColor=none;fillColor=none;align=center;verticalAlign=middle;whiteSpace=wrap;rounded=0;" parent="1" vertex="1">
          <mxGeometry x="-5" y="970" width="60" height="30" as="geometry" />
        </mxCell>
      </root>
    </mxGraphModel>
  </diagram>
</mxfile>
